<?xml version="1.0" encoding="UTF-8"?>
<svg xmlns="http://www.w3.org/2000/svg" xmlns:xlink="http://www.w3.org/1999/xlink" width="32px" height="32px" viewBox="0 0 32 32" version="1.1">
<g id="surface1">
<path style=" stroke:none;fill-rule:nonzero;fill:rgb(0%,0%,0%);fill-opacity:1;" d="M 15.8125 16.199219 C 12.429688 16.199219 9.707031 13.476562 9.707031 10.09375 C 9.707031 6.714844 12.429688 3.988281 15.8125 3.988281 C 19.195312 3.988281 21.917969 6.714844 21.917969 10.09375 C 21.917969 13.476562 19.195312 16.199219 15.8125 16.199219 Z M 15.8125 5.867188 C 13.464844 5.867188 11.585938 7.746094 11.585938 10.09375 C 11.585938 12.441406 13.464844 14.320312 15.8125 14.320312 C 18.160156 14.320312 20.039062 12.441406 20.039062 10.09375 C 20.039062 7.746094 18.160156 5.867188 15.8125 5.867188 Z M 15.8125 5.867188 "/>
<path style=" stroke:none;fill-rule:nonzero;fill:rgb(0%,0%,0%);fill-opacity:1;" d="M 7.546875 23.621094 L 7.546875 28.011719 L 5.667969 28.011719 L 5.667969 23.621094 C 5.667969 19.910156 10.226562 17.046875 16 17.046875 C 21.777344 17.046875 26.332031 19.910156 26.332031 23.621094 L 26.332031 28.011719 L 24.453125 28.011719 L 24.453125 23.621094 C 24.453125 21.082031 20.605469 18.921875 16 18.921875 C 11.398438 18.921875 7.546875 21.082031 7.546875 23.621094 Z M 7.546875 23.621094 "/>
</g>
</svg>
